<svg width="1024" height="1024" viewBox="0 0 1024 1024" xmlns="http://www.w3.org/2000/svg">
  <defs>
    <linearGradient id="bg" x1="0" y1="0" x2="0" y2="1">
      <stop offset="0" stop-color="#0c1018"/>
      <stop offset="1" stop-color="#05070b"/>
    </linearGradient>
    <radialGradient id="glow" cx="0.5" cy="0.46" r="0.5">
      <stop offset="0" stop-color="#3f8bff" stop-opacity="0.55"/>
      <stop offset="1" stop-color="#3f8bff" stop-opacity="0"/>
    </radialGradient>
    <filter id="soft" x="-40%" y="-40%" width="180%" height="180%">
      <feGaussianBlur stdDeviation="24"/>
    </filter>
    <clipPath id="tile">
      <rect x="104" y="104" width="816" height="816" rx="182"/>
    </clipPath>
  </defs>

  <rect x="104" y="104" width="816" height="816" rx="182" fill="url(#bg)"/>

  <g clip-path="url(#tile)">
    <circle cx="512" cy="500" r="300" fill="url(#glow)"/>
    <g filter="url(#soft)" opacity="0.8">
      <path d="M360 300 L664 300 L754 455 L512 760 L270 455 Z" fill="#3f8bff"/>
    </g>
    <g stroke="#0a1830" stroke-width="4" stroke-linejoin="round">
      <path d="M360 300 L512 300 L512 455 L270 455 Z" fill="#2f6fd6"/>
      <path d="M512 300 L664 300 L754 455 L512 455 Z" fill="#5097ff"/>
      <path d="M270 455 L512 455 L512 760 Z" fill="#1b4aa6"/>
      <path d="M512 455 L754 455 L512 760 Z" fill="#2c66cf"/>
      <path d="M360 300 L664 300 L612 343 L412 343 Z" fill="#7fb6ff" opacity="0.9"/>
      <path d="M512 300 L512 760" stroke="#9cc6ff" stroke-width="5" opacity="0.5"/>
    </g>
  </g>
</svg>
